<svg id="Layer_1" data-name="Layer 1" xmlns="http://www.w3.org/2000/svg" viewBox="0 0 450 450.01"><defs><style>.cls-1{fill:#79b133;}.cls-2{fill:#333;}</style></defs><path id="path5866" class="cls-1" d="M413.93,25c-48.27,0-106.57,53.07-177.59,155.7-35.13,50.88-60.13,85.18-74.5,102.38l-.07.08c-15.08,18.47-34.19,37.26-57.08,56.23C89,344,76.7,348.5,68.21,353.08a42.82,42.82,0,0,0-10.78,7.7,19.14,19.14,0,0,0-5.77,13.75c0,3.83,2,8.75,4.35,10.73a9.3,9.3,0,0,0,6.6,2.17c14,0,30.39-9.75,50.28-27.1a169.07,169.07,0,0,1,29.52-3.05c9,0,23.69,1.52,43.64,4.62l.17,0c8.66,1,11.61,1.23,16.46,1.72-16.13,34.45-29,67.56-37.16,98.82-1.26,4.83.5,10.19,3.94,12a4.82,4.82,0,0,0,3.71.35,81.1,81.1,0,0,1,24.06-4.09,40.11,40.11,0,0,1,16.82,3.86c3.48,1.59,7.21-1.09,8.34-6a10.61,10.61,0,0,0,.24-1.37c2.94-25.25,11.48-60.13,25.07-102.85,30.62-.59,54.77-6.09,71.72-18.61,17.88-13.21,28-35.35,28-62.36,0-9.31-.4-16.52-1.67-22.57a25.09,25.09,0,0,0-3.17-8.52c-1.67-2.64-4.6-4.78-7.39-4.78a7.72,7.72,0,0,0-6.17,3.88,15.28,15.28,0,0,0-2,7.95,23,23,0,0,0,1.2,7.75l-.1-.32a55.07,55.07,0,0,1,3,16.62c0,14.37-4.1,25-14,34.7a.08.08,0,0,0,0,0c-9.68,9.63-22.64,14.8-39.52,14.8-5.66,0-12.09-.53-18.33-.92,10.53-30.48,24.07-67.43,43.48-116.92l0-.05c22.41-56.41,34.34-86.62,36.84-93.65l2.55-7.18a14.59,14.59,0,0,0,1.2-6.32,14.36,14.36,0,0,0-2.2-7.48,7.63,7.63,0,0,0-3.83-3,4.5,4.5,0,0,0-1.61-.27c-2.49,0-4.91,1.8-6.33,3.8a19.89,19.89,0,0,0-2.83,6.23l.15-.51c-6.31,18.22-23,54.17-49.64,105.94-30,58.14-48.72,95.47-58.65,116.58a265.65,265.65,0,0,0-26.74-1.29,332.92,332.92,0,0,0-45.31,2.82,323,323,0,0,0,26.36-27.63l0,0c16.54-19.62,41.63-54,75.69-103.65C317.24,99.16,373.32,50.81,413.93,50.81c6.62,0,13.47,1.79,20.65,5.52l.47.22a9.94,9.94,0,0,0,4.37,1.07,7.57,7.57,0,0,0,6.12-3.06c2-2.53,2.79-6.42,2.79-9.12a14.64,14.64,0,0,0-5.57-11.92,30.34,30.34,0,0,0-8.45-4.59A55.7,55.7,0,0,0,413.93,25Z" transform="translate(-25 -25)"/><path id="path4670" class="cls-2" d="M140.66,301.94a4.9,4.9,0,0,1-1,2.59c-.32.21-1.08.16-2.26-.17q-11.58-2.1-33.83-.48-4.22.31-4.62-1.62-.41-2.26,2.67-3.48,8.75-3.55,8.74-6.64a9.71,9.71,0,0,0-1-3.48q-6-14.31-10-23.06-5.74.33-20.23.32-12,0-20.4-.64-2.82,7-7.93,19.42a14,14,0,0,0-1.13,5.1q0,4.53,4.94,6.63,7.61,3.24,7.44,4.94-.15,2.75-5.1,2.18a93.24,93.24,0,0,0-28.16,1q-3.39.72-3.8-2.43c-.22-1.4,1.54-2.92,5.26-4.53q6-2.52,10.11-11.58,15.78-34.23,20.4-45Q72,215.19,76.57,198.83q.65-2.51,6.39-4.69,1.38-.48,3.48,4.69,17.49,42.09,39.17,90a18,18,0,0,0,11.74,10.11q3.72,1.05,3.31,3ZM96.72,259.29q-5.34-12.15-16.67-37.63c-.43-.92-.92-1.38-1.46-1.38s-1,.46-1.38,1.38L61.76,259q8.66.65,19.42.65,6.63,0,15.54-.32Z" transform="translate(-25 -25)"/><path id="path4672" class="cls-2" d="M237.53,226.67Q237.53,242,225,251q-12,8.34-31.16,8.34c-1,0-2.75-.08-5.18-.25s-3.69-.24-4-.24c-.54,0-.81.84-.81,2.51v29c0,2.54.51,4.18,1.54,4.94s3.93,1.54,8.58,2.35c3,.54,4.45,1.59,4.45,3.15,0,1.35-.25,2.19-.73,2.51s-1.84.43-4.05.32a271.68,271.68,0,0,0-32,.65c-2.32.16-3.47-.78-3.47-2.83,0-1.4,1.15-2.21,3.47-2.43q7.94-.81,7.94-8.66V212.75q0-7.68-9-9.47c-3-.59-4.45-1.53-4.45-2.83,0-1.67.41-2.67,1.22-3a9,9,0,0,1,3.72.16,59.46,59.46,0,0,0,10.76.73q3.57,0,12.79-.33t15-.4q17.33,0,27.35,7.28,10.53,7.6,10.53,21.77Zm-15.7,1.78q0-14.16-6.63-19.82-6.24-5.35-21-5.35c-4,0-6.77.57-8.18,1.7s-2.1,3.46-2.1,7.13v38.76q0,2.26,10.76,2.27,12.54,0,19.83-6.4t7.36-18.29Z" transform="translate(-25 -25)"/><path id="path4674" class="cls-2" d="M372.12,250.22q0,23.4-17.32,39.66-17,16-40.87,16-25.08,0-41.68-15-17-15.54-17-40.14,0-23.79,17.24-40,17-15.85,41.43-15.86,24.93,0,41.44,15.46Q372.11,226,372.12,250.22ZM355.69,253q0-23.55-12.87-37.22-12.37-13.11-32.69-13.11-16.85,0-27.68,12.46t-10.76,32.29q0,23.88,12.54,37.55,12.22,13.28,33.18,13.27,16.92,0,27.6-12.46T355.69,253Z" transform="translate(-25 -25)"/><path id="path4676" class="cls-2" d="M474.9,283.32a125.91,125.91,0,0,0-3,19.43c0,1-1.7,1.45-4.93,1.29q-12.63-.65-32.21-.65-21.52,0-37.07.81-3.48.17-3.48-2.83,0-2.1,3.48-2.43,4.86-.57,6.23-1.86c1.14-1.08,1.7-3.34,1.7-6.8V215.75q0-7.53-1.37-9.47t-7.61-4q-3.31-1-2.43-4c.27-1,.7-1.59,1.3-1.7a13.76,13.76,0,0,1,4.29.32q5.18.81,27,.81t37.47-1c3.5-.22,5.26,0,5.26.73a2.14,2.14,0,0,1-.17.81,78.89,78.89,0,0,0-1.45,18.21c.05,1.67-.73,2.51-2.35,2.51a3.17,3.17,0,0,1-3.15-2.19,31.32,31.32,0,0,0-4-7.69,11.89,11.89,0,0,0-7.45-3.88q-3.88-.74-27.35-.73c-1.78,0-2.91.3-3.4.89a4.47,4.47,0,0,0-.4,2.43v33.83c0,1.34.78,2,2.34,2q7.46-.17,21.37-1.05a4.3,4.3,0,0,0,3.56-2.35,27.31,27.31,0,0,0,1.86-6.72c.49-2.32,1.75-3.15,3.8-2.51,1.84.33,2.62,1.16,2.35,2.51q-2.26,11-1.45,28.65c.05,1.3-.84,2.08-2.68,2.35-1.61.21-2.56-.68-2.83-2.67-.54-4.16-1.24-6.88-2.1-8.18s-2.38-2.15-4.7-2.42a181,181,0,0,0-20.07-.81c-1,0-1.45.37-1.45,1.13V287q0,7.53,8.74,9.23,2.17.4,15.13.41,20.14,0,25.17-14.09,1.21-3.31,4-2.18c1.72.43,2.4,1.43,2,3Z" transform="translate(-25 -25)"/></svg>